<svg width="298" height="434" viewBox="0 0 298 434" xmlns="http://www.w3.org/2000/svg" xmlns:xlink="http://www.w3.org/1999/xlink"><title>Group 13</title><defs><path id="a" d="M0 .7h289.067v219.576H0z"/><path id="c" d="M.864.287h141.217v159.807H.864z"/></defs><g fill="none" fill-rule="evenodd"><g transform="translate(0 76)"><mask id="b" fill="#fff"><use xlink:href="#a"/></mask><path d="M289.067 220.272h-1.862c-47.116-.005-94.223.027-141.339-.032-29.73-.04-56.73-8.998-81.01-25.901-30.032-20.91-50.414-48.917-60.043-84.36-7.44-27.401-5.963-54.658 2.42-81.642 2.755-8.87 6.266-17.434 10.798-25.557.299-.544.648-1.051 1.287-2.08-.145 2.075-.286 3.57-.345 5.066-.997 23.849 5.619 45.777 17.264 66.282 14.197 24.991 34.107 43.911 60.597 55.564 16.996 7.48 34.877 10.461 53.355 10.447 27.98-.022 55.966.154 83.95-.09 10.246-.09 16.93 4.263 21.307 13.36 10.639 22.12 21.528 44.11 32.316 66.157.4.81.766 1.635 1.305 2.786" fill="#FFF" mask="url(#b)"/></g><g transform="translate(155)"><mask id="d" fill="#fff"><use xlink:href="#c"/></mask><path d="M.864.286c6.004.756 11.709 1.29 17.341 2.219 21.737 3.581 41.878 11.31 59.98 23.934 29.916 20.868 49.341 49.176 59.047 84.216a133.593 133.593 0 0 1 4.849 35.416c.004 1.753-.091 3.56-.503 5.253-1.342 5.542-5.297 8.68-11.02 8.73-8.211.072-16.43.026-24.646.026-14.024 0-28.048.005-42.073 0-7.884-.004-12.175-3.821-12.57-11.758-.566-11.424-3.484-22.037-10.054-31.486-8.605-12.37-20.68-19.642-35.045-23.395C.891 92.064.864 92.173.864 86.807V.287z" fill="#FFF" mask="url(#d)"/></g><path d="M141.85 1c.045 1.025.105 1.715.105 2.41.004 29.079-.014 58.163.045 87.242.005 1.874-.523 2.469-2.399 2.763-25.802 4.007-45.193 24.906-47.264 50.79-1.813 22.597 7.542 39.657 25.92 52.266.522.358 1.049.717 1.571 1.08.055.036.082.113.314.449-2.085-.513-3.944-.917-5.77-1.438-1.84-.527-3.657-1.14-5.461-1.774-1.872-.658-3.758-1.303-5.566-2.106-30.018-13.371-52.03-34.764-63.834-65.577-10.418-27.21-8.5-53.83 6.952-78.93C54.29 35.47 65.218 25.86 78.112 18.472c16.197-9.283 33.834-14.025 52.234-16.28 3.73-.453 7.479-.78 11.504-1.193M158 434h2.316c25.842 0 51.689 0 77.53-.005.85 0 1.704-.081 2.553-.109 4.795-.168 7.942-2.67 9.804-6.948.504-1.167.93-2.375 1.33-3.588 10.353-31.287 20.702-62.584 31.05-93.875 2.108-6.381 4.215-12.767 6.417-19.425h-2.557c-28.326 0-56.656.023-84.987-.05-1.911-.005-2.67.604-3.251 2.366L158 434zM172 351.002H39.743c-.565 0-1.13-.009-1.695.01-6.287.24-10.978 4.876-11.001 11.202-.063 20.248-.063 40.5.004 60.747.023 5.967 3.987 10.135 9.912 10.784 1.261.137 2.536.21 3.806.21 33.844.009 67.688-.005 101.536.045 1.75.005 2.54-.477 3.105-2.218l26.59-80.78z" fill="#FFF"/></g></svg>