<svg width="25" height="37" viewBox="0 0 25 37" xmlns="http://www.w3.org/2000/svg" xmlns:xlink="http://www.w3.org/1999/xlink"><title>Group 14</title><defs><path id="a" d="M0 .446h23.72v17.78H0z"/><path id="c" d="M.295.424h11.588v12.948H.295z"/><path id="e" d="M.101.494h11.93v6.7H.1z"/></defs><g fill="none" fill-rule="evenodd"><g transform="translate(0 6.77)"><mask id="b" fill="#fff"><use xlink:href="#a"/></mask><path d="M23.72 18.227h-.152c-3.866-.001-7.732.002-11.598-.003-2.44-.004-4.655-.729-6.648-2.097-2.464-1.694-4.137-3.961-4.927-6.832-.61-2.218-.49-4.426.198-6.611A10.74 10.74 0 0 1 1.48.614c.024-.043.053-.085.105-.168-.012.169-.023.29-.028.41-.082 1.932.461 3.707 1.417 5.368 1.164 2.024 2.798 3.556 4.972 4.5 1.395.605 2.862.846 4.378.845 2.297-.001 4.593.012 6.89-.007.84-.007 1.389.345 1.748 1.082.872 1.79 1.767 3.572 2.651 5.357.033.065.064.132.108.226" fill="#2991E4" mask="url(#b)"/></g><g transform="translate(13.02 .09)"><mask id="d" fill="#fff"><use xlink:href="#c"/></mask><path d="M.295.424c.493.06.961.104 1.423.18 1.784.29 3.437.916 4.922 1.939 2.455 1.69 4.049 3.984 4.845 6.824.263.938.396 1.896.399 2.87 0 .142-.009.288-.042.425-.11.449-.435.703-.904.707-.674.006-1.348.002-2.022.002H5.463c-.647 0-1-.31-1.032-.953-.046-.925-.285-1.785-.825-2.55C2.9 8.864 1.91 8.275.73 7.971.297 7.86.295 7.869.295 7.435V.424z" fill="#3AB6E4" mask="url(#d)"/></g><path d="M11.604.525c.003.082.009.138.009.194 0 2.352-.002 4.703.003 7.055 0 .151-.043.2-.196.223-2.112.324-3.699 2.014-3.868 4.107-.149 1.827.617 3.206 2.121 4.226l.129.087c.004.003.006.01.025.037-.17-.042-.323-.074-.472-.116a9.206 9.206 0 0 1-.447-.144c-.153-.053-.307-.105-.455-.17-2.457-1.082-4.259-2.811-5.225-5.303-.852-2.2-.695-4.352.57-6.382.64-1.027 1.534-1.804 2.59-2.401C7.712 1.188 9.155.803 10.661.62c.306-.037.612-.063.942-.096" fill="#31A2E3"/><path d="M12.986 36.573h6.538c.07 0 .14-.007.21-.009.391-.013.65-.215.801-.56.042-.096.077-.193.11-.29l2.542-7.584c.173-.516.346-1.031.525-1.57h-.209c-2.32 0-4.64.002-6.959-.003-.157 0-.218.049-.266.19l-3.292 9.826z" fill="#2080E3"/><g transform="translate(1.563 29.382)"><mask id="f" fill="#fff"><use xlink:href="#e"/></mask><path d="M12.03.494H1.15l-.14.001C.493.515.107.89.105 1.4a732.79 732.79 0 0 0 0 4.903c.002.482.328.818.816.87.104.012.208.018.313.018 2.784 0 5.569 0 8.353.003.144.001.209-.038.256-.179L12.03.495z" fill="#1B74E3" mask="url(#f)"/></g></g></svg>